<svg xmlns="http://www.w3.org/2000/svg" width="37" height="32">
    <path fill="#03AAC5" fill-rule="evenodd" d="M34.781 17.542H1.738c-1.036 0-1.724-.672-1.725-1.708 0-1.036.689-1.769 1.725-1.769h33.043c1.036 0 1.745.732 1.745 1.769 0 1.036-.709 1.708-1.745 1.708zm0-13.91H1.738C.702 3.632.014 2.96.013 1.924.013.887.702.155 1.738.155h33.043c1.036 0 1.745.732 1.745 1.769 0 1.036-.709 1.708-1.745 1.708zM1.738 27.975h33.043c1.036 0 1.745.733 1.745 1.769s-.709 1.709-1.745 1.709H1.738c-1.036 0-1.724-.673-1.725-1.709 0-1.036.689-1.769 1.725-1.769z"/>
</svg>
